# xmcd
#
# Track frame offsets: 
#        150
#        29003
#        50987
#        72036
#        88898
#        101570
#        120582
#        137608
#        159100
#        178496
#        196225
#        232230
#        248905
#        268239
#        291093
#
# Disc length: 4079 seconds
#
# Revision: 0
# Processed by: cddbd v1.5.2PL0 Copyright (c) Steve Scherf et al.
# Submitted via: ExactAudioCopy v0.95b4
#
DISCID=e60fed0f
DTITLE=Various Artist - Bluescat - 1r recopilatori -2005
DYEAR=2005
DGENRE=Blues
TTITLE0=Alex A. and TNT
TTITLE1=Amadeu Casas - woatinee
TTITLE2=Big Mama and J Pau Cumellas - cara de foc
TTITLE3=Errol Woiski - trist gris
TTITLE4=J Vinyals and Cece Giannotti - waiting at the train station
TTITLE5=J Pau Cumellas and M Talavera sugar sweet
TTITLE6=Lluis Coloma - jungle's groove
TTITLE7=Loti Lewis - drowning in the blues
TTITLE8=Blues de Picolat - cansat
TTITLE9=Railes - route 66
TTITLE10=Riquis Sabate y los Obstinados - absolutamente tuyo
TTITLE11=Stewe de Swardt Blues Band - I need a song
TTITLE12=Tandoori Lenoir - on my own
TTITLE13=Txell Sust and A Tharrats Blues Trio - you don't know
TTITLE14=Victor Uris - digo Diego
EXTD=
EXTT0=
EXTT1=
EXTT2=
EXTT3=
EXTT4=
EXTT5=
EXTT6=
EXTT7=
EXTT8=
EXTT9=
EXTT10=
EXTT11=
EXTT12=
EXTT13=
EXTT14=
PLAYORDER=
